# xmcd
# 
# Track frame offsets:
#     187
#     24630
#     57360
#     79660
#     99267
#     151085
#     173712
# 
# Disc length: 2629
# 
# Revision: 2
# Processed by: cddbd v1.5.2PL0 Copyright (c) Steve Scherf et al.
# Submitted via: BonkEnc v1.0.8
# 
DISCID=450a4307
DTITLE=Mal Waldron - MAL-4
DYEAR=1958
DGENRE=Jazz
TTITLE0=Splidium-Dow
TTITLE1=Like Someone In Love
TTITLE2=Get Happy
TTITLE3=J.M.'s Dream Doll
TTITLE4=Too Close For Comfort
TTITLE5=By My Self
TTITLE6=Love Span
EXTD=YEAR: 1958
EXTT0=
EXTT1=
EXTT2=
EXTT3=
EXTT4=
EXTT5=
EXTT6=
PLAYORDER=
